<svg width="384" height="264" viewBox="0 0 384 264" fill="none" xmlns="http://www.w3.org/2000/svg">
<g opacity="0.1">
<path d="M223.025 63.8447C214.575 88.8601 207.311 120.264 201.648 156.353C203.46 156.409 205.248 156.489 207.051 156.578C213.998 125.278 222.285 99.0896 231.531 79.5145C228.769 73.6885 225.941 68.4653 223.025 63.8447Z" fill="#F2F3F8"/>
<path d="M271.227 40.0503C301.808 40.0503 328.693 105.124 344.252 203.57C345.276 204.366 346.267 205.177 347.266 205.989C334.51 84.7935 305.278 0 271.227 0C256.846 0 243.302 15.1635 231.529 41.7941C234.479 48.4477 237.298 55.8165 240.02 63.8442C249.712 48.4798 260.234 40.0503 271.227 40.0503Z" fill="#F2F3F8"/>
<path d="M351.921 263.935C350.978 247.574 349.776 231.663 348.297 216.299C347.525 215.761 346.753 215.206 345.933 214.676C348.224 230.346 350.222 246.803 351.921 263.935Z" fill="#F2F3F8"/>
<path d="M190.541 263.999C190.744 261.902 190.972 259.829 191.191 257.74C191.142 257.217 191.085 256.703 191.004 256.181C190.85 258.776 190.679 261.388 190.541 263.999Z" fill="#F2F3F8"/>
<path d="M191.176 253.617C191.225 254.477 191.281 255.337 191.346 256.189C194.409 227.059 198.382 199.947 203.135 175.429C201.714 175.397 200.3 175.349 198.878 175.333C195.563 199.738 192.963 225.991 191.176 253.617Z" fill="#F2F3F8"/>
<path d="M180.719 156.4C181.686 162.587 182.612 168.903 183.481 175.348C186.244 175.292 189.03 175.268 191.809 175.268C194.181 175.268 196.53 175.292 198.878 175.332C199.755 168.863 200.665 162.547 201.648 156.352C198.382 156.255 195.108 156.175 191.809 156.175C188.096 156.175 184.391 156.279 180.719 156.4Z" fill="#F2F3F8"/>
<path d="M262.689 164.911C263.551 170.681 264.363 176.563 265.127 182.55C296.09 189.067 323.666 199.867 345.936 214.685C345.383 210.94 344.831 207.228 344.262 203.579C322.406 186.439 294.457 173.027 262.698 164.911H262.689Z" fill="#F2F3F8"/>
<path d="M0 250.627C8.86409 237.979 20.3444 226.841 33.9452 217.255C34.2864 213.855 34.6114 210.496 34.9526 207.146C19.7187 219.946 7.75913 234.628 0 250.619V250.627Z" fill="#F2F3F8"/>
<path d="M207.053 156.577C205.696 162.676 204.38 168.968 203.137 175.429C223.343 176.016 242.785 178.121 261.099 181.721C259.953 175.534 258.759 169.507 257.54 163.649C241.518 159.896 224.61 157.469 207.061 156.577H207.053Z" fill="#F2F3F8"/>
<path d="M126.094 163.648C124.851 169.506 123.657 175.533 122.527 181.721C140.442 178.193 159.487 176.096 179.222 175.477C177.971 169.008 176.662 162.716 175.314 156.625C158.203 157.581 141.718 159.984 126.094 163.656V163.648Z" fill="#F2F3F8"/>
<path d="M383.61 250.612C375.624 234.139 363.168 219.063 347.276 205.989C347.634 209.412 347.975 212.844 348.3 216.299C362.51 226.111 374.47 237.562 383.61 250.612Z" fill="#F2F3F8"/>
<path d="M37.9189 204.704C37.3501 208.304 36.8139 211.952 36.2695 215.64C58.7832 200.34 86.8786 189.203 118.5 182.541C119.272 176.554 120.068 170.672 120.921 164.902C88.4629 173.195 59.9775 187.025 37.9189 204.704Z" fill="#F2F3F8"/>
<path d="M344.253 203.57C344.822 207.219 345.374 210.939 345.927 214.676C346.747 215.198 347.519 215.761 348.291 216.299C347.966 212.844 347.625 209.412 347.267 205.989C346.26 205.177 345.277 204.366 344.253 203.57Z" fill="#F2F3F8"/>
<path d="M201.647 156.352C200.656 162.547 199.754 168.863 198.877 175.332C200.299 175.348 201.712 175.396 203.134 175.428C204.386 168.968 205.694 162.676 207.05 156.577C205.247 156.488 203.459 156.408 201.647 156.352Z" fill="#F2F3F8"/>
<path d="M111.104 264C114.037 234.404 117.888 206.785 122.527 181.729C121.178 181.995 119.829 182.276 118.489 182.549C115.239 207.974 112.728 235.288 111.104 264Z" fill="#F2F3F8"/>
<path d="M272.511 263.936C270.87 235.24 268.367 207.958 265.126 182.541C263.777 182.268 262.444 181.979 261.096 181.722C265.727 206.753 269.578 234.356 272.511 263.936Z" fill="#F2F3F8"/>
<path d="M231.529 79.5137C241.45 100.551 250.265 129.215 257.537 163.648C259.275 164.058 260.998 164.46 262.696 164.902C256.878 125.205 249.136 90.796 240.028 63.8359C237.119 68.4565 234.275 73.6798 231.537 79.5057L231.529 79.5137Z" fill="#F2F3F8"/>
<path d="M143.148 65.1709C134.243 91.9381 126.662 125.857 120.91 164.911C122.624 164.469 124.355 164.067 126.094 163.657C133.195 129.963 141.791 101.798 151.459 80.9049C148.77 75.079 145.999 69.8236 143.148 65.1709Z" fill="#F2F3F8"/>
<path d="M191.801 40.0503C202.81 40.0503 213.323 48.4798 223.024 63.8442C225.738 55.8084 228.581 48.4477 231.531 41.7941C219.733 15.1635 206.19 0 191.801 0C177.412 0 163.396 15.6939 151.453 43.2244C154.346 49.878 157.108 57.2067 159.773 65.1621C169.693 48.9539 180.499 40.0503 191.801 40.0503Z" fill="#F2F3F8"/>
<path d="M231.53 79.5139C234.268 73.6879 237.112 68.4647 240.02 63.8441C237.299 55.8083 234.479 48.4476 231.53 41.7939C228.581 48.4476 225.737 55.8164 223.023 63.8441C225.94 68.4647 228.768 73.6879 231.53 79.5139Z" fill="#F2F3F8"/>
<path d="M257.537 163.648C258.756 169.507 259.95 175.533 261.096 181.721C262.445 181.986 263.777 182.267 265.126 182.541C264.362 176.554 263.55 170.672 262.689 164.902C260.99 164.46 259.268 164.058 257.529 163.648H257.537Z" fill="#F2F3F8"/>
<path d="M120.913 164.911C120.06 170.68 119.264 176.563 118.492 182.549C119.833 182.276 121.181 181.987 122.53 181.73C123.66 175.542 124.854 169.515 126.097 163.657C124.358 164.067 122.628 164.469 120.913 164.911Z" fill="#F2F3F8"/>
<path d="M183.48 175.348C182.058 175.38 180.661 175.428 179.223 175.476C183.959 199.969 187.941 227.074 191.004 256.179C191.077 255.32 191.117 254.476 191.174 253.616C189.379 226.005 186.787 199.76 183.472 175.348H183.48Z" fill="#F2F3F8"/>
<path d="M30.4199 264C32.0855 247.205 34.0354 231.061 36.2616 215.648C35.4898 216.187 34.726 216.717 33.9461 217.256C32.5161 232.347 31.3218 247.952 30.4199 264Z" fill="#F2F3F8"/>
<path d="M191.801 263.935C191.655 261.339 191.484 258.76 191.346 256.188C191.289 256.703 191.224 257.217 191.191 257.739C191.386 259.788 191.598 261.854 191.809 263.935H191.801Z" fill="#F2F3F8"/>
<path d="M151.461 80.8969C160.455 100.319 168.523 126.034 175.315 156.626C177.103 156.53 178.89 156.473 180.71 156.401C175.145 120.931 168.036 89.9773 159.765 65.1709C156.921 69.8316 154.151 75.079 151.453 80.9049L151.461 80.8969Z" fill="#F2F3F8"/>
<path d="M111.106 40.0503C122.432 40.0503 133.238 48.9539 143.15 65.1621C145.823 57.1986 148.586 49.87 151.454 43.2244C139.535 15.6939 125.763 0 111.106 0C76.958 0 47.6521 85.3319 34.9531 207.146C35.9443 206.326 36.9031 205.499 37.9187 204.703C53.4288 105.638 80.4192 40.0503 111.106 40.0503Z" fill="#F2F3F8"/>
<path d="M191.004 256.181C191.077 256.703 191.142 257.217 191.191 257.74C191.223 257.217 191.288 256.703 191.345 256.189C191.288 255.329 191.223 254.469 191.175 253.617C191.118 254.477 191.077 255.321 191.004 256.181Z" fill="#F2F3F8"/>
<path d="M34.9508 207.147C34.6096 210.498 34.2846 213.857 33.9434 217.256C34.7233 216.717 35.4871 216.187 36.2589 215.649C36.8033 211.952 37.3395 208.304 37.9082 204.712C36.8926 205.507 35.9339 206.335 34.9427 207.155L34.9508 207.147Z" fill="#F2F3F8"/>
<path d="M180.717 156.401C178.897 156.474 177.11 156.53 175.322 156.626C176.671 162.717 177.979 169.009 179.23 175.478C180.66 175.43 182.066 175.382 183.488 175.35C182.618 168.905 181.692 162.589 180.725 156.401H180.717Z" fill="#F2F3F8"/>
<path d="M151.462 80.8963C154.159 75.0784 156.93 69.823 159.774 65.1623C157.109 57.1988 154.346 49.8702 151.454 43.2246C148.586 49.8702 145.815 57.2069 143.15 65.1623C146.002 69.8069 148.773 75.0623 151.462 80.8963Z" fill="#F2F3F8"/>
</g>
</svg>
