<svg width="111" height="93" viewBox="0 0 111 93" fill="none" xmlns="http://www.w3.org/2000/svg">
<g clip-path="url(#clip0_432_152)">
<path d="M64.4954 18.4004C62.0604 25.61 59.9673 34.6608 58.3354 45.0618C58.8576 45.078 59.3726 45.1012 59.8924 45.1266C61.8942 36.1059 64.2823 28.5582 66.9467 22.9165C66.1506 21.2374 65.3359 19.732 64.4954 18.4004Z" fill="#C42228"/>
<path d="M78.3858 11.5428C87.1983 11.5428 94.9456 30.2975 99.4292 58.6704C99.7242 58.8997 100.01 59.1336 100.298 59.3675C96.622 24.4381 88.1981 0 78.3858 0C74.2417 0 70.3388 4.37023 66.9463 12.0453C67.7962 13.963 68.6086 16.0867 69.3929 18.4004C72.1861 13.9722 75.218 11.5428 78.3858 11.5428Z" fill="#C42228"/>
<path d="M101.64 76.068C101.368 71.3527 101.021 66.767 100.595 62.3389C100.373 62.1837 100.151 62.0239 99.9141 61.8711C100.574 66.3872 101.15 71.1303 101.64 76.068Z" fill="#C42228"/>
<path d="M55.1348 76.0865C55.1933 75.482 55.2589 74.8845 55.3221 74.2824C55.308 74.1318 55.2916 73.9836 55.2682 73.8331C55.2237 74.5811 55.1746 75.3338 55.1348 76.0865Z" fill="#C42228"/>
<path d="M55.3174 73.0943C55.3314 73.3421 55.3478 73.5899 55.3665 73.8354C56.2492 65.44 57.3941 57.6259 58.7637 50.5599C58.354 50.5506 57.9466 50.5367 57.5369 50.5321C56.5817 57.5657 55.8325 65.132 55.3174 73.0943Z" fill="#C42228"/>
<path d="M52.3042 45.0757C52.5828 46.859 52.8497 48.6793 53.1002 50.5367C53.8963 50.5205 54.6993 50.5136 55.5 50.5136C56.1837 50.5136 56.8603 50.5205 57.537 50.5321C57.7898 48.6677 58.052 46.8474 58.3353 45.0618C57.3941 45.034 56.4506 45.0108 55.5 45.0108C54.4301 45.0108 53.3625 45.0409 52.3042 45.0757Z" fill="#27265F"/>
<path d="M75.9253 47.5283C76.1735 49.1912 76.4076 50.8864 76.6277 52.6118C85.5503 54.4901 93.4966 57.6027 99.914 61.8734C99.7548 60.7942 99.5956 59.7242 99.4317 58.6727C93.1337 53.7328 85.0797 49.8674 75.9276 47.5283H75.9253Z" fill="#27265F"/>
<path d="M0.227051 72.2327C2.78138 68.5874 6.08961 65.3775 10.0089 62.6145C10.1072 61.6348 10.2009 60.6668 10.2992 59.701C5.90933 63.3904 2.46297 67.6216 0.227051 72.2304V72.2327Z" fill="#27265F"/>
<path d="M59.8922 45.1266C59.5012 46.8845 59.1219 48.6979 58.7637 50.5599C64.5864 50.729 70.1891 51.3357 75.4663 52.3733C75.1362 50.59 74.7921 48.853 74.4409 47.1647C69.8239 46.0831 64.9517 45.3837 59.8945 45.1266H59.8922Z" fill="#27265F"/>
<path d="M36.5635 47.1647C36.2052 48.853 35.8611 50.59 35.5356 52.3733C40.6982 51.3566 46.1861 50.7521 51.8731 50.5738C51.5125 48.7094 51.1356 46.896 50.7469 45.1405C45.8162 45.4161 41.0657 46.1086 36.5635 47.167V47.1647Z" fill="#27265F"/>
<path d="M110.77 72.2281C108.469 67.4804 104.88 63.1356 100.3 59.3675C100.403 60.3541 100.502 61.343 100.595 62.3389C104.69 65.1667 108.137 68.467 110.77 72.2281Z" fill="#27265F"/>
<path d="M11.154 58.997C10.9901 60.0345 10.8356 61.086 10.6787 62.149C17.1664 57.7394 25.2625 54.5295 34.3748 52.6095C34.5972 50.8841 34.8267 49.1888 35.0725 47.526C25.7191 49.9161 17.5106 53.9018 11.154 58.997Z" fill="#27265F"/>
<path d="M99.4292 58.6704C99.5931 59.7219 99.7523 60.7942 99.9115 61.8711C100.148 62.0216 100.37 62.1837 100.593 62.3389C100.499 61.343 100.401 60.3541 100.298 59.3675C100.008 59.1336 99.7242 58.8997 99.4292 58.6704Z" fill="#C42228"/>
<path d="M58.335 45.0618C58.0494 46.8474 57.7895 48.6677 57.5366 50.5321C57.9463 50.5367 58.3537 50.5506 58.7635 50.5599C59.124 48.6978 59.501 46.8844 59.8919 45.1266C59.3722 45.1012 58.8571 45.078 58.335 45.0618Z" fill="#27265F"/>
<path d="M32.2441 76.0865C33.0893 67.5568 34.1991 59.5968 35.536 52.3756C35.1473 52.452 34.7587 52.5331 34.3724 52.6118C33.4359 59.9396 32.7124 67.8115 32.2441 76.0865Z" fill="#C42228"/>
<path d="M78.7558 76.068C78.2829 67.7976 77.5618 59.9349 76.6276 52.6095C76.2389 52.5308 75.855 52.4474 75.4663 52.3733C76.8008 59.5875 77.9106 67.5429 78.7558 76.068Z" fill="#C42228"/>
<path d="M66.9463 22.9165C69.805 28.9797 72.3453 37.2408 74.4407 47.1647C74.9418 47.2828 75.4381 47.3986 75.9274 47.526C74.2511 36.0851 72.0198 26.1681 69.3953 18.398C68.5571 19.7297 67.7376 21.2351 66.9486 22.9142L66.9463 22.9165Z" fill="#C42228"/>
<path d="M41.4779 18.7825C38.9119 26.497 36.7274 36.2727 35.0698 47.5283C35.5638 47.4009 36.0625 47.2851 36.5636 47.167C38.6098 37.4562 41.0869 29.3387 43.873 23.3172C43.0981 21.6381 42.2997 20.1234 41.4779 18.7825Z" fill="#C42228"/>
<path d="M55.4974 11.5428C58.6698 11.5428 61.6994 13.9722 64.4949 18.4004C65.2769 16.0844 66.0964 13.963 66.9462 12.0453C63.5467 4.37023 59.6438 0 55.4974 0C51.351 0 47.3123 4.52309 43.8706 12.4576C44.7041 14.3752 45.5001 16.4874 46.2681 18.7802C49.1268 14.1089 52.2407 11.5428 55.4974 11.5428Z" fill="#C42228"/>
<path d="M66.9464 22.9165C67.7354 21.2374 68.5549 19.732 69.3931 18.4004C68.6087 16.0844 67.7963 13.963 66.9464 12.0453C66.0966 13.963 65.2771 16.0867 64.4951 18.4004C65.3356 19.732 66.1504 21.2374 66.9464 22.9165Z" fill="#C42228"/>
<path d="M74.4408 47.1647C74.792 48.853 75.1362 50.59 75.4663 52.3733C75.8549 52.4497 76.2389 52.5308 76.6276 52.6095C76.4075 50.8841 76.1734 49.1888 75.9252 47.526C75.4359 47.3986 74.9395 47.2828 74.4385 47.1647H74.4408Z" fill="#C42228"/>
<path d="M35.0698 47.5283C34.8239 49.1912 34.5945 50.8865 34.3721 52.6118C34.7584 52.5331 35.147 52.4497 35.5357 52.3756C35.8611 50.5923 36.2053 48.8553 36.5635 47.167C36.0625 47.2851 35.5638 47.4009 35.0698 47.5283Z" fill="#27265F"/>
<path d="M53.1004 50.5367C52.6906 50.546 52.2879 50.5599 51.8735 50.5738C53.2385 57.6329 54.3857 65.4446 55.2684 73.8331C55.2895 73.5853 55.3012 73.3421 55.3176 73.0943C54.8001 65.1366 54.0533 57.5727 53.098 50.5367H53.1004Z" fill="#C42228"/>
<path d="M8.99268 76.0865C9.47264 71.2461 10.0345 66.5933 10.6761 62.1513C10.4536 62.3065 10.2336 62.4593 10.0088 62.6145C9.59673 66.9639 9.25256 71.4615 8.99268 76.0865Z" fill="#C42228"/>
<path d="M55.4974 76.068C55.4552 75.3199 55.4061 74.5765 55.3663 73.8354C55.3499 73.9836 55.3311 74.1318 55.3218 74.2823C55.378 74.8729 55.4388 75.4681 55.4997 76.068H55.4974Z" fill="#C42228"/>
<path d="M43.8729 23.3149C46.4647 28.9125 48.7896 36.3236 50.7469 45.1405C51.262 45.1127 51.7771 45.0965 52.3015 45.0757C50.6978 34.853 48.6492 25.9319 46.2657 18.7825C45.4463 20.1258 44.6479 21.6381 43.8706 23.3172L43.8729 23.3149Z" fill="#C42228"/>
<path d="M32.2441 11.5428C35.5079 11.5428 38.6218 14.1089 41.4781 18.7802C42.2484 16.4851 43.0444 14.3729 43.8709 12.4576C40.4363 4.52309 36.4678 0 32.2441 0C22.4037 0 13.9587 24.5933 10.2993 59.701C10.585 59.4648 10.8612 59.2262 11.1539 58.997C15.6234 30.4457 23.4011 11.5428 32.2441 11.5428Z" fill="#C42228"/>
<path d="M55.2681 73.8331C55.2891 73.9836 55.3079 74.1318 55.3219 74.2824C55.3313 74.1318 55.35 73.9836 55.3664 73.8354C55.35 73.5876 55.3313 73.3398 55.3172 73.0943C55.3008 73.3421 55.2891 73.5852 55.2681 73.8331Z" fill="#C42228"/>
<path d="M10.2991 59.701C10.2008 60.6668 10.1071 61.6349 10.0088 62.6145C10.2336 62.4593 10.4536 62.3065 10.6761 62.1513C10.8329 61.086 10.9874 60.0345 11.1513 58.9993C10.8587 59.2286 10.5824 59.4671 10.2968 59.7033L10.2991 59.701Z" fill="#27265F"/>
<path d="M52.3041 45.0757C51.7797 45.0965 51.2646 45.1127 50.7495 45.1405C51.1382 46.896 51.5151 48.7094 51.8757 50.5738C52.2877 50.5599 52.6928 50.546 53.1025 50.5367C52.852 48.6793 52.5851 46.859 52.3065 45.0757H52.3041Z" fill="#C42228"/>
<path d="M43.8732 23.3149C44.6505 21.6381 45.4488 20.1234 46.2683 18.7802C45.5003 16.4851 44.7043 14.3729 43.8708 12.4576C43.0443 14.3729 42.246 16.4874 41.478 18.7802C42.2998 20.1188 43.0982 21.6335 43.8732 23.3149Z" fill="#C42228"/>
<path d="M4.73406 80.6675L8.99519 89.8202H7.44995L6.06625 86.8326H2.1891L0.760915 89.8202H0L4.35712 80.6675H4.73406ZM2.45366 86.2559H5.7853L4.14172 82.7171L2.45366 86.2559Z" fill="#27265F"/>
<path d="M11.2875 89.8202H9.90381V79.7805L10.8918 79.3891H11.2875V89.8202Z" fill="#27265F"/>
<path d="M14.4223 89.8202H13.0386V79.7805L14.0266 79.3891H14.4223V89.8202Z" fill="#27265F"/>
<path d="M15.2793 82.9279H16.8573L19.5521 87.9072L21.7482 82.9279H22.4881L18.9293 91.0291C18.7772 91.3672 18.6039 91.6614 18.4096 91.9092C18.2153 92.157 18.0069 92.3631 17.7891 92.5229C17.5714 92.6827 17.3466 92.8031 17.1172 92.8819C16.8878 92.9606 16.663 93 16.4429 93C16.2907 93 16.1479 92.9815 16.0121 92.9421C15.8763 92.9027 15.7569 92.8495 15.6539 92.7777C15.5509 92.7082 15.4713 92.6225 15.4127 92.5229C15.3542 92.4233 15.3261 92.3168 15.3261 92.201C15.3261 92.106 15.3449 92.0134 15.3847 91.9208C15.4245 91.8281 15.4783 91.7494 15.5509 91.6799C15.6235 91.6104 15.7077 91.5548 15.8108 91.5132C15.9114 91.4715 16.0262 91.4483 16.1526 91.4483C16.3001 91.4483 16.4148 91.4645 16.4991 91.4969C16.5834 91.5294 16.6607 91.5664 16.7309 91.6058C16.8011 91.6475 16.8737 91.6822 16.951 91.7146C17.0282 91.7471 17.1336 91.7633 17.2694 91.7633C17.4122 91.7633 17.541 91.7216 17.6534 91.6405C17.7657 91.5595 17.8687 91.4576 17.9577 91.3348C18.049 91.2121 18.1286 91.0801 18.1989 90.9318C18.2691 90.7859 18.33 90.6516 18.3862 90.5265L18.8544 89.4913L15.284 82.9209L15.2793 82.9279Z" fill="#27265F"/>
<path d="M27.5801 80.8736H31.2231C31.7031 80.8736 32.1456 80.9269 32.5483 81.0334C32.951 81.1399 33.2951 81.2905 33.5831 81.4827C33.8711 81.6749 34.0959 81.9065 34.2551 82.1775C34.4143 82.4461 34.4962 82.7449 34.4962 83.0714C34.4962 83.3146 34.4705 83.5346 34.4189 83.7269C34.3674 83.9191 34.2785 84.0974 34.152 84.2642C34.0256 84.4286 33.857 84.5861 33.6463 84.732C33.4333 84.8802 33.1687 85.0284 32.848 85.179V85.2045C33.1687 85.2554 33.459 85.3434 33.7213 85.4638C33.9835 85.5866 34.2059 85.7418 34.3909 85.9294C34.5758 86.1169 34.7163 86.3346 34.817 86.5825C34.9176 86.8279 34.9668 87.1012 34.9668 87.4023C34.9668 87.7404 34.8919 88.0577 34.742 88.3519C34.5922 88.6483 34.3815 88.9054 34.1052 89.1231C33.8289 89.3408 33.4988 89.5122 33.1078 89.6372C32.7192 89.7623 32.2837 89.8225 31.8014 89.8225H27.5801V80.8736ZM29.0996 84.9011H31.0358C31.3378 84.9011 31.6094 84.8571 31.8482 84.7714C32.087 84.6857 32.286 84.5676 32.4499 84.4147C32.6115 84.2619 32.7356 84.0835 32.8199 83.8774C32.9041 83.6713 32.9463 83.4466 32.9463 83.2035C32.9463 82.9418 32.8971 82.7055 32.7964 82.4901C32.6958 82.2771 32.5412 82.0918 32.3282 81.9413C32.1151 81.7884 31.8482 81.6726 31.5228 81.5915C31.1974 81.5105 30.8087 81.4688 30.3545 81.4688H29.1019V84.8987L29.0996 84.9011ZM29.0996 89.1648H30.7431C31.1856 89.1648 31.5673 89.1231 31.8927 89.0397C32.2181 88.9563 32.4851 88.8382 32.6981 88.69C32.9112 88.5394 33.068 88.3588 33.1687 88.148C33.2694 87.9373 33.3209 87.7034 33.3209 87.4509C33.3209 87.1684 33.2764 86.9044 33.1851 86.6612C33.0938 86.418 32.9439 86.2049 32.7379 86.0289C32.5295 85.8506 32.2603 85.7117 31.9255 85.6074C31.593 85.5055 31.1833 85.4546 30.6987 85.4546H29.1019V89.1671L29.0996 89.1648Z" fill="#27265F"/>
<path d="M36.1004 82.9232H37.4771V84.2271C37.6105 84.0349 37.7557 83.8496 37.9125 83.6736C38.0671 83.4976 38.2309 83.3447 38.3995 83.2104C38.5681 83.0784 38.7413 82.9719 38.9216 82.8954C39.1019 82.819 39.2845 82.7796 39.4695 82.7796C39.6217 82.7796 39.7621 82.8028 39.8909 82.8468C40.0197 82.8931 40.1344 82.951 40.2327 83.0274C40.3311 83.1016 40.406 83.1896 40.4622 83.2915C40.5184 83.3934 40.5465 83.4976 40.5465 83.6088C40.5465 83.8311 40.4762 84.0001 40.3358 84.1136C40.1953 84.2271 39.9986 84.2827 39.7481 84.2827C39.5912 84.2827 39.4671 84.2665 39.3735 84.2341C39.2798 84.2016 39.1956 84.1669 39.1206 84.1252C39.0457 84.0835 38.9685 84.0488 38.8888 84.0164C38.8116 83.9839 38.7133 83.9677 38.5962 83.9677C38.5049 83.9677 38.4136 83.9932 38.3199 84.0488C38.2263 84.1021 38.1326 84.1762 38.0413 84.2734C37.9477 84.3707 37.854 84.4819 37.758 84.6139C37.662 84.7459 37.5684 84.8872 37.4724 85.0423V89.8202H36.0957V82.9209L36.1004 82.9232Z" fill="#27265F"/>
<path d="M42.178 79.3891C42.2857 79.3891 42.3887 79.4076 42.487 79.4423C42.5854 79.4794 42.6696 79.528 42.7399 79.5905C42.8125 79.6531 42.8686 79.7249 42.9131 79.8083C42.9553 79.8916 42.9787 79.9796 42.9787 80.0746C42.9787 80.1695 42.9576 80.2575 42.9131 80.3409C42.8686 80.4243 42.8125 80.4961 42.7399 80.5586C42.6673 80.6212 42.583 80.6698 42.487 80.7068C42.3887 80.7439 42.2857 80.7601 42.178 80.7601C42.0703 80.7601 41.9673 80.7416 41.8736 80.7068C41.78 80.6721 41.6957 80.6212 41.6231 80.5586C41.5505 80.4961 41.4943 80.4243 41.4498 80.3409C41.4053 80.2575 41.3843 80.1695 41.3843 80.0746C41.3843 79.9796 41.4053 79.8916 41.4498 79.8083C41.4943 79.7249 41.5505 79.6531 41.6231 79.5905C41.6957 79.528 41.7776 79.4794 41.8736 79.4423C41.9696 79.4053 42.0703 79.3891 42.178 79.3891ZM41.5013 83.1734L42.4753 82.782H42.878V89.8225H41.5013V83.1734Z" fill="#27265F"/>
<path d="M49.504 89.1462C49.3448 89.2736 49.1716 89.3894 48.9843 89.489C48.7993 89.5909 48.605 89.6766 48.4036 89.7461C48.2023 89.8155 47.9986 89.8711 47.7925 89.9105C47.5865 89.9499 47.3875 89.9684 47.1908 89.9684C46.7788 89.9684 46.3948 89.8734 46.0389 89.6859C45.6807 89.4983 45.3693 89.2435 45.1048 88.9216C44.8402 88.5997 44.6295 88.2268 44.475 87.803C44.3204 87.3791 44.2432 86.9322 44.2432 86.4597C44.2432 86.1471 44.2876 85.839 44.3766 85.5356C44.4656 85.2299 44.5897 84.9427 44.7465 84.6718C44.9034 84.4008 45.0954 84.1484 45.3178 83.9168C45.5402 83.6852 45.7884 83.486 46.0623 83.3169C46.3363 83.1479 46.6266 83.0159 46.9356 82.9209C47.2447 82.826 47.5701 82.7796 47.9073 82.7796C48.2444 82.7796 48.5417 82.8375 48.7969 82.9556C49.0521 83.0738 49.2886 83.2289 49.504 83.4212V79.7781L50.471 79.3867H50.8807V89.9661H49.504V89.1439V89.1462ZM49.504 85.1118C49.504 84.8432 49.4525 84.5954 49.3518 84.3707C49.2488 84.1461 49.1177 83.9538 48.9515 83.7963C48.7876 83.6389 48.6003 83.5138 48.3919 83.4258C48.1835 83.3378 47.9752 83.2938 47.7621 83.2938C47.4858 83.2938 47.226 83.3633 46.9871 83.4999C46.746 83.6365 46.5376 83.8288 46.3573 84.0719C46.1771 84.3174 46.0366 84.6092 45.9312 84.9497C45.8282 85.2901 45.7767 85.663 45.7767 86.0706C45.7767 86.5083 45.8329 86.9183 45.9476 87.3004C46.0623 87.6825 46.2192 88.0184 46.4182 88.3032C46.6172 88.5881 46.8513 88.8127 47.1159 88.9772C47.3828 89.1416 47.6661 89.225 47.9705 89.225C48.118 89.225 48.2631 89.2064 48.4083 89.1671C48.5535 89.1277 48.6916 89.0768 48.8227 89.0142C48.9538 88.9517 49.0802 88.8753 49.1973 88.7896C49.3144 88.7039 49.415 88.6136 49.5017 88.5209V85.1164L49.504 85.1118Z" fill="#27265F"/>
<path d="M59.4262 83.2822V83.8542H58.101C58.2392 84.0418 58.3492 84.2526 58.4335 84.4865C58.5154 84.7204 58.5576 84.952 58.5576 85.1836C58.5576 85.5426 58.478 85.8691 58.3164 86.1633C58.1572 86.4574 57.9325 86.7098 57.6468 86.9206C57.3612 87.1313 57.0194 87.2958 56.6237 87.4116C56.228 87.5274 55.7902 87.5853 55.3149 87.5853C55.1416 87.5853 54.9637 87.5714 54.7788 87.5413C54.5938 87.5112 54.4346 87.4741 54.3011 87.4324C54.1677 87.5389 54.0553 87.664 53.964 87.8053C53.8727 87.9466 53.8282 88.0901 53.8282 88.2361C53.8282 88.3727 53.9055 88.4839 54.06 88.5696C54.2145 88.6552 54.4299 88.7016 54.7062 88.7108L57.2909 88.8197C57.703 88.8359 58.0448 88.8845 58.3211 88.9633C58.5974 89.042 58.8151 89.1485 58.9813 89.2782C59.1452 89.4079 59.2623 89.5654 59.3279 89.7507C59.3957 89.9337 59.4285 90.1375 59.4285 90.3598C59.4285 90.7628 59.3349 91.1264 59.1452 91.4506C58.9579 91.7772 58.684 92.0528 58.3258 92.282C57.9676 92.5113 57.5344 92.6873 57.024 92.8124C56.5136 92.9375 55.9353 92.9977 55.2915 92.9977C54.1396 92.9977 53.2803 92.8703 52.7091 92.6132C52.1401 92.3562 51.8545 92.0157 51.8545 91.5919C51.8545 91.4043 51.9013 91.2213 51.9973 91.0453C52.0933 90.8693 52.2151 90.7026 52.3649 90.5404C52.5147 90.3806 52.6786 90.2255 52.8612 90.0772C53.0439 89.929 53.2218 89.7878 53.3997 89.6511C53.271 89.6117 53.1492 89.5654 53.0392 89.5098C52.9291 89.4543 52.8331 89.3917 52.7535 89.3199C52.6739 89.2505 52.6107 89.1717 52.5616 89.0883C52.5147 89.005 52.489 88.9146 52.489 88.815C52.489 88.6738 52.5264 88.5279 52.599 88.382C52.6716 88.2337 52.7746 88.0925 52.9034 87.9558C53.0322 87.8192 53.1843 87.6941 53.3553 87.5806C53.5262 87.4672 53.7088 87.3745 53.9031 87.3004C53.4302 87.1035 53.0626 86.8279 52.798 86.4759C52.5335 86.1216 52.4024 85.7163 52.4024 85.2577C52.4024 84.9196 52.482 84.6 52.6388 84.2966C52.7957 83.9955 53.0134 83.7315 53.2874 83.5068C53.5613 83.2822 53.8867 83.1039 54.2613 82.9742C54.6359 82.8445 55.0363 82.7773 55.4671 82.7773C55.6755 82.7773 55.8815 82.7912 56.0828 82.819C56.2865 82.8468 56.4762 82.8839 56.6518 82.9279C56.8274 82.9742 56.9842 83.0251 57.12 83.0853C57.2558 83.1456 57.3612 83.2104 57.4338 83.2776H59.4215L59.4262 83.2822ZM53.8282 89.7646C53.7252 89.841 53.6339 89.9267 53.5566 90.0217C53.4793 90.1166 53.4114 90.2162 53.3576 90.3204C53.3037 90.4246 53.2616 90.5289 53.2335 90.6354C53.2054 90.7396 53.1914 90.8392 53.1914 90.9342C53.1914 91.0893 53.2476 91.2375 53.3576 91.3788C53.4676 91.5201 53.6315 91.6428 53.8516 91.7517C54.0693 91.8582 54.3433 91.9439 54.6734 92.0088C55.0035 92.0736 55.3851 92.106 55.823 92.106C56.2865 92.106 56.7009 92.069 57.0709 91.9972C57.4384 91.9231 57.7498 91.8281 58.005 91.7077C58.2602 91.5873 58.4546 91.4529 58.5904 91.3047C58.7238 91.1565 58.7917 91.0083 58.7917 90.8577C58.7917 90.5497 58.6372 90.3251 58.3281 90.1838C58.0191 90.0425 57.5953 89.973 57.0592 89.973C56.7267 89.973 56.3896 89.9661 56.0454 89.9499C55.7036 89.936 55.3851 89.9174 55.0878 89.8943C54.7905 89.8734 54.5306 89.8503 54.3082 89.8271C54.0857 89.804 53.9265 89.7831 53.8305 89.7669L53.8282 89.7646ZM55.5561 87.2263C55.7504 87.2263 55.94 87.1823 56.1203 87.0943C56.3029 87.0063 56.4621 86.8858 56.6003 86.7307C56.7384 86.5755 56.8484 86.3972 56.9304 86.1911C57.0123 85.9849 57.0545 85.7649 57.0545 85.5287C57.0545 85.1906 57.0076 84.8756 56.914 84.5884C56.8203 84.2989 56.6939 84.0488 56.5347 83.8334C56.3755 83.6203 56.1882 83.4513 55.9751 83.3285C55.7621 83.2058 55.5373 83.1456 55.3009 83.1456C55.0644 83.1456 54.8654 83.1942 54.6945 83.2915C54.5236 83.3887 54.3831 83.5184 54.273 83.6875C54.163 83.8542 54.081 84.0511 54.0295 84.2781C53.978 84.505 53.9523 84.7482 53.9523 85.0099C53.9523 85.3226 53.9921 85.6144 54.0693 85.883C54.1466 86.154 54.2566 86.3879 54.3971 86.5871C54.5376 86.7863 54.7062 86.9437 54.9028 87.0549C55.0995 87.1684 55.3172 87.2263 55.5561 87.2263Z" fill="#27265F"/>
<path d="M63.8164 89.9684C63.3435 89.9684 62.901 89.8804 62.4889 89.7044C62.0768 89.5284 61.7139 89.2898 61.4049 88.9887C61.0959 88.6853 60.85 88.3333 60.6721 87.928C60.4918 87.5227 60.4028 87.0897 60.4028 86.6265C60.4028 86.0729 60.4848 85.5611 60.6487 85.091C60.8126 84.6208 61.0443 84.2132 61.344 83.8705C61.6437 83.5277 62.0043 83.2614 62.4257 83.0668C62.8471 82.8746 63.3154 82.7773 63.8305 82.7773C64.2894 82.7773 64.7084 82.8561 65.0901 83.0159C65.4717 83.1734 65.7971 83.3864 66.0711 83.6551C66.3427 83.9237 66.5557 84.2317 66.7079 84.5838C66.8601 84.9358 66.935 85.304 66.935 85.6885H61.7327C61.7327 86.1517 61.7936 86.5801 61.9153 86.9762C62.037 87.3722 62.2056 87.7126 62.421 87.9998C62.6364 88.287 62.8963 88.5117 63.2007 88.6738C63.5027 88.8359 63.8351 88.9169 64.1934 88.9169C64.4954 88.9169 64.7857 88.8683 65.0643 88.7734C65.3406 88.6761 65.5934 88.551 65.8182 88.3935C66.043 88.2384 66.235 88.0577 66.3918 87.8539C66.5487 87.6501 66.6611 87.4417 66.7266 87.2286L67.1223 87.4023C67.0216 87.759 66.8624 88.0902 66.6377 88.4005C66.4152 88.7108 66.1554 88.9818 65.858 89.2134C65.5607 89.445 65.2376 89.6279 64.884 89.7623C64.5305 89.8966 64.1746 89.9638 63.8164 89.9638V89.9684ZM65.2001 85.1396C65.2001 84.8779 65.1533 84.6347 65.0596 84.4101C64.966 84.1854 64.8396 83.9909 64.6757 83.8265C64.5141 83.662 64.3221 83.5323 64.1044 83.4374C63.8867 83.3424 63.6502 83.2961 63.3997 83.2961C63.1913 83.2961 62.9923 83.3447 62.798 83.4374C62.606 83.5323 62.4351 83.6597 62.2852 83.8218C62.1354 83.9839 62.0136 84.1785 61.9153 84.4031C61.817 84.6278 61.7584 84.871 61.7374 85.1327L65.1978 85.1396H65.2001Z" fill="#27265F"/>
<path d="M77.7912 81.309C77.2457 81.309 76.7447 81.4063 76.2858 81.5985C75.8269 81.7907 75.4289 82.064 75.0941 82.4207C74.7593 82.7773 74.497 83.2058 74.3121 83.713C74.1248 84.2178 74.0335 84.7853 74.0335 85.4152C74.0335 86.0451 74.1365 86.6126 74.3378 87.1174C74.5415 87.6223 74.8178 88.0531 75.169 88.4074C75.5202 88.7641 75.9322 89.0374 76.4099 89.2296C76.8851 89.4218 77.3979 89.5191 77.9434 89.5191C78.3414 89.5191 78.702 89.4658 79.0227 89.3593C79.3435 89.2528 79.6291 89.0999 79.8796 88.9031V85.7626H78.1729V85.2299H81.4015V89.1671C81.1369 89.3084 80.87 89.4334 80.6031 89.5399C80.3339 89.6465 80.0459 89.7391 79.7368 89.8132C79.4278 89.8873 79.086 89.9429 78.7114 89.98C78.3367 90.017 77.913 90.0332 77.4424 90.0332C76.9437 90.0332 76.4684 89.9777 76.0165 89.8665C75.5647 89.7553 75.1456 89.5978 74.764 89.3964C74.38 89.1949 74.0358 88.954 73.7244 88.6715C73.4154 88.3889 73.1508 88.0763 72.9354 87.7335C72.72 87.3907 72.5514 87.0225 72.4344 86.6311C72.3173 86.2397 72.2588 85.8344 72.2588 85.4129C72.2588 84.9914 72.315 84.5838 72.4274 84.1854C72.5397 83.7871 72.6989 83.4119 72.9073 83.0622C73.1157 82.7102 73.3686 82.3882 73.6706 82.0964C73.9726 81.8023 74.3097 81.5499 74.6867 81.3391C75.0636 81.126 75.4734 80.9616 75.9182 80.8435C76.3607 80.7254 76.8336 80.6675 77.337 80.6675C77.8404 80.6675 78.2595 80.7323 78.6645 80.8597C79.0696 80.9871 79.4395 81.1585 79.7743 81.3692C80.1091 81.58 80.4064 81.8255 80.6663 82.1034C80.9262 82.3813 81.1486 82.6708 81.3359 82.9695L80.6804 83.4073C80.2987 82.6847 79.875 82.152 79.4067 81.8139C78.9385 81.4757 78.4023 81.3067 77.7959 81.3067L77.7912 81.309Z" fill="#27265F"/>
<path d="M83.1812 82.9232H84.5578V84.2271C84.6913 84.0349 84.8364 83.8496 84.9933 83.6736C85.1502 83.4976 85.3117 83.3447 85.4803 83.2104C85.6489 83.0784 85.8245 82.9719 86.0024 82.8954C86.1827 82.819 86.3653 82.7796 86.5503 82.7796C86.7024 82.7796 86.8429 82.8028 86.9717 82.8468C87.1005 82.8931 87.2152 82.951 87.3135 83.0274C87.4118 83.1039 87.4868 83.1896 87.543 83.2915C87.5991 83.3934 87.6272 83.4976 87.6272 83.6088C87.6272 83.8311 87.557 84.0001 87.4165 84.1136C87.276 84.2271 87.0794 84.2827 86.8289 84.2827C86.6743 84.2827 86.5479 84.2665 86.4566 84.2341C86.3629 84.2016 86.2787 84.1669 86.2037 84.1252C86.1288 84.0835 86.0516 84.0488 85.9743 84.0164C85.897 83.9839 85.7987 83.9677 85.6816 83.9677C85.5903 83.9677 85.499 83.9932 85.4054 84.0488C85.3117 84.1021 85.2181 84.1762 85.1268 84.2734C85.0331 84.3707 84.9395 84.4819 84.8435 84.6139C84.7475 84.7459 84.6538 84.8872 84.5578 85.0423V89.8202H83.1812V82.9209V82.9232Z" fill="#27265F"/>
<path d="M91.7593 89.9684C91.2278 89.9684 90.7338 89.8758 90.2819 89.6928C89.8301 89.5075 89.4391 89.2574 89.1136 88.9401C88.7859 88.6228 88.5307 88.2523 88.348 87.8261C88.1631 87.4 88.0718 86.9461 88.0718 86.4597C88.0718 85.9502 88.1631 85.4708 88.348 85.0238C88.5307 84.5768 88.7882 84.1877 89.1136 83.8542C89.4391 83.5231 89.8301 83.259 90.2819 83.0668C90.7338 82.8746 91.2278 82.7773 91.7593 82.7773C92.2908 82.7773 92.7824 82.8653 93.2296 83.0413C93.6768 83.2174 94.0654 83.4582 94.3956 83.7639C94.7233 84.0696 94.9809 84.4286 95.1658 84.8432C95.3508 85.2554 95.4421 85.7001 95.4421 86.1702C95.4421 86.6936 95.3508 87.1846 95.1658 87.6455C94.9809 88.1064 94.7257 88.5093 94.3956 88.8521C94.0654 89.1972 93.6768 89.4682 93.2296 89.6673C92.7824 89.8665 92.2908 89.9661 91.7593 89.9661V89.9684ZM92.0192 89.4612C92.2908 89.4612 92.5413 89.3917 92.7684 89.2528C92.9955 89.1138 93.1921 88.9285 93.3584 88.6946C93.5246 88.4607 93.6534 88.1874 93.7447 87.8748C93.836 87.5621 93.8805 87.2332 93.8805 86.8858C93.8805 86.3856 93.836 85.9178 93.7494 85.4824C93.6627 85.047 93.5223 84.6671 93.3279 84.3429C93.1336 84.0187 92.8808 83.7616 92.567 83.5763C92.2556 83.391 91.8717 83.2961 91.4175 83.2961C91.1833 83.2961 90.9586 83.3633 90.7432 83.4953C90.5278 83.6273 90.3358 83.8102 90.1696 84.0418C90.0033 84.2734 89.8699 84.5421 89.7692 84.8524C89.6685 85.1604 89.6194 85.4893 89.6194 85.8344C89.6194 86.3346 89.6732 86.8071 89.7809 87.2471C89.8886 87.6895 90.0455 88.0716 90.2492 88.4005C90.4529 88.727 90.7034 88.9864 91.0031 89.1763C91.3027 89.3662 91.6399 89.4635 92.0168 89.4635L92.0192 89.4612Z" fill="#27265F"/>
<path d="M98.1558 82.9232V87.8308C98.1558 88.0021 98.1956 88.1643 98.2752 88.3171C98.3548 88.47 98.4648 88.5997 98.603 88.7131C98.7411 88.8243 98.905 88.9146 99.0899 88.9795C99.2749 89.0466 99.4739 89.0791 99.687 89.0791C99.8251 89.0791 99.9726 89.0513 100.129 88.9934C100.284 88.9355 100.439 88.8544 100.588 88.7525C100.738 88.6506 100.879 88.5302 101.01 88.3959C101.143 88.2615 101.251 88.1156 101.338 87.9628V82.9279H102.721V89.8271H101.338V88.5371C101.216 88.734 101.064 88.9193 100.879 89.0953C100.694 89.2713 100.495 89.4241 100.282 89.5538C100.066 89.6835 99.8462 89.7878 99.6191 89.8619C99.392 89.936 99.1766 89.973 98.9729 89.973C98.6685 89.973 98.3829 89.9174 98.116 89.804C97.8467 89.6905 97.6149 89.5376 97.4159 89.3454C97.2169 89.1532 97.0601 88.9262 96.9453 88.6691C96.8306 88.4097 96.7744 88.1318 96.7744 87.8377V82.9302H98.1581L98.1558 82.9232Z" fill="#27265F"/>
<path d="M104.344 82.9232H105.727V84.329C105.866 84.153 106.02 83.9747 106.191 83.7917C106.362 83.6087 106.552 83.4443 106.76 83.2938C106.968 83.1432 107.195 83.0205 107.446 82.9255C107.694 82.8283 107.968 82.782 108.268 82.782C108.68 82.782 109.054 82.8676 109.392 83.039C109.729 83.2104 110.017 83.442 110.255 83.7361C110.494 84.0303 110.677 84.373 110.808 84.7667C110.937 85.1605 111.002 85.5796 111.002 86.0266C111.002 86.5964 110.923 87.1221 110.761 87.6038C110.602 88.0855 110.375 88.5024 110.08 88.8544C109.785 89.2064 109.429 89.4797 109.008 89.6766C108.588 89.8734 108.116 89.973 107.591 89.973C107.397 89.973 107.216 89.9638 107.053 89.9452C106.889 89.9267 106.732 89.8966 106.582 89.8549C106.432 89.8132 106.289 89.7623 106.151 89.6974C106.013 89.6326 105.873 89.5562 105.73 89.4658V92.736H104.346V82.9279L104.344 82.9232ZM105.727 87.9581C105.727 88.1643 105.772 88.3588 105.863 88.5418C105.955 88.7247 106.081 88.8845 106.247 89.0212C106.411 89.1555 106.608 89.2643 106.84 89.3431C107.069 89.4218 107.32 89.4612 107.593 89.4612C107.867 89.4612 108.097 89.3964 108.324 89.2643C108.551 89.1346 108.75 88.9494 108.921 88.7085C109.092 88.4677 109.225 88.1828 109.324 87.8516C109.422 87.5204 109.469 87.1499 109.469 86.7423C109.469 86.2327 109.424 85.7881 109.333 85.4106C109.242 85.0308 109.115 84.7158 108.954 84.4633C108.792 84.2109 108.6 84.021 108.38 83.8983C108.16 83.7732 107.917 83.713 107.652 83.713C107.448 83.713 107.254 83.7431 107.071 83.8056C106.886 83.8681 106.713 83.9515 106.552 84.0534C106.39 84.1553 106.24 84.2758 106.1 84.4101C105.962 84.5444 105.837 84.6857 105.73 84.8316V87.9605L105.727 87.9581Z" fill="#27265F"/>
</g>
<defs>
<clipPath id="clip0_432_152">
<rect width="111" height="93" fill="white"/>
</clipPath>
</defs>
</svg>
