<svg width="290" height="222" viewBox="0 0 290 222" fill="none" xmlns="http://www.w3.org/2000/svg">
<g opacity="0.4">
<path d="M138.373 147.451C140.873 167.98 142.828 190.049 144.182 213.268C145.53 190.036 147.49 167.96 149.99 147.438C148.22 147.404 146.449 147.384 144.66 147.384C142.564 147.384 140.456 147.404 138.379 147.451H138.373Z" fill="#F2F3F8"/>
<path d="M168.194 53.687C161.822 74.7226 156.344 101.13 152.073 131.478C153.44 131.525 154.788 131.592 156.148 131.667C161.387 105.347 167.636 83.3247 174.609 66.8638C172.526 61.9648 170.394 57.5725 168.194 53.687Z" fill="#F2F3F8"/>
<path d="M204.547 33.6786C227.61 33.6786 247.885 88.3996 259.619 171.184C260.391 171.853 261.139 172.535 261.892 173.218C252.272 71.3035 230.226 0 204.547 0C193.702 0 183.488 12.7511 174.609 35.145C176.834 40.7401 178.96 46.9365 181.012 53.6871C188.322 40.7671 196.257 33.6786 204.547 33.6786Z" fill="#F2F3F8"/>
<path d="M265.402 221.945C264.691 208.187 263.784 194.808 262.669 181.887C262.087 181.435 261.505 180.968 260.886 180.522C262.614 193.699 264.121 207.538 265.402 221.945Z" fill="#F2F3F8"/>
<path d="M143.696 222C143.849 220.236 144.021 218.493 144.186 216.736C144.15 216.297 144.107 215.864 144.046 215.425C143.929 217.608 143.8 219.804 143.696 222Z" fill="#F2F3F8"/>
<path d="M144.174 213.268C144.211 213.991 144.253 214.714 144.302 215.43C146.612 190.935 149.609 168.136 153.193 147.519C152.121 147.492 151.055 147.452 149.982 147.438C147.483 167.96 145.522 190.036 144.174 213.268Z" fill="#F2F3F8"/>
<path d="M136.288 131.517C137.017 136.72 137.716 142.032 138.371 147.451C140.455 147.404 142.556 147.384 144.652 147.384C146.441 147.384 148.212 147.404 149.983 147.438C150.644 141.998 151.331 136.687 152.072 131.477C149.609 131.396 147.139 131.328 144.652 131.328C141.852 131.328 139.058 131.416 136.288 131.517Z" fill="#F2F3F8"/>
<path d="M198.107 138.675C198.757 143.526 199.37 148.473 199.946 153.507C223.297 158.987 244.092 168.069 260.887 180.53C260.471 177.381 260.054 174.259 259.625 171.191C243.143 156.778 222.065 145.499 198.114 138.675H198.107Z" fill="#F2F3F8"/>
<path d="M0 210.755C6.68484 200.119 15.3426 190.753 25.5997 182.692C25.857 179.833 26.1021 177.009 26.3595 174.191C14.8709 184.955 5.85153 197.301 0 210.748V210.755Z" fill="#F2F3F8"/>
<path d="M156.147 131.667C155.123 136.796 154.131 142.087 153.193 147.519C168.432 148.013 183.094 149.783 196.905 152.81C196.041 147.607 195.141 142.539 194.221 137.613C182.139 134.458 169.388 132.417 156.153 131.667H156.147Z" fill="#F2F3F8"/>
<path d="M95.0942 137.613C94.1567 142.539 93.256 147.607 92.4043 152.81C105.915 149.844 120.277 148.08 135.16 147.56C134.217 142.12 133.23 136.829 132.213 131.707C119.309 132.511 106.877 134.532 95.0942 137.62V137.613Z" fill="#F2F3F8"/>
<path d="M289.3 210.741C283.276 196.889 273.883 184.212 261.898 173.218C262.168 176.096 262.425 178.982 262.67 181.887C273.387 190.138 282.406 199.767 289.3 210.741Z" fill="#F2F3F8"/>
<path d="M28.5954 172.137C28.1665 175.164 27.7621 178.232 27.3516 181.333C44.3302 168.467 65.5183 159.102 89.3655 153.5C89.9476 148.466 90.5481 143.519 91.1915 138.667C66.7131 145.641 45.2309 157.27 28.5954 172.137Z" fill="#F2F3F8"/>
<path d="M259.616 171.184C260.045 174.251 260.462 177.38 260.878 180.522C261.497 180.961 262.079 181.435 262.661 181.887C262.416 178.982 262.159 176.096 261.889 173.218C261.13 172.535 260.388 171.853 259.616 171.184Z" fill="#F2F3F8"/>
<path d="M152.073 131.477C151.325 136.687 150.645 141.998 149.983 147.438C151.056 147.451 152.122 147.492 153.194 147.519C154.138 142.086 155.124 136.795 156.147 131.666C154.787 131.592 153.439 131.524 152.073 131.477Z" fill="#F2F3F8"/>
<path d="M83.791 221.999C86.003 197.112 88.9073 173.887 92.4059 152.817C91.3888 153.04 90.3717 153.277 89.3607 153.507C86.9098 174.887 85.0165 197.855 83.791 221.999Z" fill="#F2F3F8"/>
<path d="M205.514 221.945C204.276 197.815 202.389 174.874 199.944 153.5C198.927 153.27 197.922 153.027 196.905 152.811C200.398 173.86 203.302 197.071 205.514 221.945Z" fill="#F2F3F8"/>
<path d="M174.609 66.863C182.091 84.5538 188.739 108.657 194.223 137.612C195.534 137.957 196.833 138.295 198.114 138.667C193.726 105.285 187.887 76.3503 181.018 53.6794C178.825 57.5649 176.68 61.9572 174.616 66.8563L174.609 66.863Z" fill="#F2F3F8"/>
<path d="M107.957 54.802C101.241 77.3107 95.5246 105.834 91.1865 138.674C92.4794 138.303 93.7845 137.965 95.0957 137.62C100.451 109.287 106.934 85.602 114.225 68.0329C112.197 63.1338 110.108 58.7145 107.957 54.802Z" fill="#F2F3F8"/>
<path d="M144.646 33.6786C152.948 33.6786 160.877 40.7671 168.193 53.6871C170.239 46.9298 172.384 40.7401 174.608 35.145C165.711 12.7511 155.497 0 144.646 0C133.794 0 123.225 13.1971 114.218 36.3478C116.399 41.9429 118.482 48.1056 120.492 54.7953C127.973 41.1658 136.123 33.6786 144.646 33.6786Z" fill="#F2F3F8"/>
<path d="M174.852 67.3508C176.917 62.4518 179.061 58.0595 181.255 54.174C179.202 47.4167 177.076 41.2269 174.852 35.6318C172.628 41.2269 170.483 47.4234 168.437 54.174C170.636 58.0595 172.768 62.4518 174.852 67.3508Z" fill="#F2F3F8"/>
<path d="M194.222 137.613C195.141 142.539 196.042 147.607 196.906 152.81C197.923 153.033 198.928 153.27 199.945 153.5C199.369 148.465 198.756 143.519 198.107 138.667C196.826 138.296 195.527 137.958 194.216 137.613H194.222Z" fill="#F2F3F8"/>
<path d="M91.1863 138.674C90.5429 143.526 89.9424 148.472 89.3604 153.506C90.3713 153.276 91.3885 153.033 92.4056 152.817C93.2573 147.614 94.158 142.546 95.0955 137.62C93.7842 137.964 92.4791 138.302 91.1863 138.674Z" fill="#F2F3F8"/>
<path d="M138.372 147.452C137.3 147.479 136.246 147.52 135.161 147.561C138.733 168.157 141.736 190.949 144.046 215.425C144.101 214.702 144.131 213.992 144.174 213.269C142.82 190.051 140.866 167.981 138.366 147.452H138.372Z" fill="#F2F3F8"/>
<path d="M22.9404 222C24.1965 207.877 25.6671 194.301 27.3459 181.341C26.7638 181.794 26.1879 182.24 25.5997 182.692C24.5213 195.383 23.6206 208.505 22.9404 222Z" fill="#F2F3F8"/>
<path d="M144.646 221.945C144.536 219.763 144.407 217.594 144.303 215.431C144.26 215.864 144.211 216.296 144.187 216.736C144.334 218.459 144.493 220.195 144.652 221.945H144.646Z" fill="#F2F3F8"/>
<path d="M114.224 68.0261C121.007 84.3587 127.091 105.982 132.214 131.707C133.562 131.626 134.91 131.579 136.282 131.518C132.085 101.691 126.724 75.6619 120.486 54.802C118.341 58.7213 116.252 63.1338 114.218 68.0329L114.224 68.0261Z" fill="#F2F3F8"/>
<path d="M83.7902 33.6786C92.3316 33.6786 100.481 41.1658 107.956 54.7953C109.972 48.0988 112.055 41.9361 114.218 36.3478C105.229 13.1971 94.8437 0 83.7902 0C58.0373 0 35.9363 71.7563 26.3594 174.191C27.1069 173.502 27.8299 172.806 28.5958 172.137C40.2928 88.8321 60.6475 33.6786 83.7902 33.6786Z" fill="#F2F3F8"/>
<path d="M144.046 215.424C144.101 215.863 144.15 216.296 144.187 216.735C144.211 216.296 144.26 215.863 144.303 215.431C144.26 214.708 144.211 213.985 144.175 213.269C144.132 213.992 144.101 214.701 144.046 215.424Z" fill="#F2F3F8"/>
<path d="M26.3594 174.19C26.102 177.008 25.857 179.833 25.5996 182.691C26.1878 182.238 26.7638 181.792 27.3459 181.34C27.7564 178.231 28.1608 175.163 28.5897 172.143C27.8238 172.812 27.1008 173.508 26.3533 174.197L26.3594 174.19Z" fill="#F2F3F8"/>
<path d="M135.889 131.562C134.516 131.623 133.168 131.67 131.82 131.751C132.837 136.874 133.824 142.165 134.768 147.604C135.846 147.564 136.906 147.523 137.978 147.496C137.323 142.077 136.624 136.765 135.895 131.562H135.889Z" fill="#F2F3F8"/>
<path d="M114.224 68.0259C116.258 63.1335 118.348 58.7142 120.492 54.795C118.483 48.0984 116.399 41.9357 114.218 36.3474C112.055 41.9357 109.966 48.1052 107.956 54.795C110.107 58.7007 112.196 63.12 114.224 68.0259Z" fill="#F2F3F8"/>
</g>
</svg>
