<svg width="197" height="180" viewBox="0 0 197 180" fill="none" xmlns="http://www.w3.org/2000/svg">
<path d="M94.2197 119.555C95.922 136.2 97.2529 154.094 98.1749 172.92C99.0928 154.083 100.428 136.184 102.13 119.544C100.924 119.517 99.7186 119.5 98.5003 119.5C97.0735 119.5 95.6383 119.517 94.2239 119.555H94.2197Z" fill="#F2F3F8"/>
<path d="M114.526 43.53C110.187 60.5859 106.457 81.9976 103.549 106.603C104.479 106.642 105.397 106.697 106.323 106.757C109.89 85.4164 114.146 67.5606 118.894 54.2139C117.475 50.2417 116.024 46.6804 114.526 43.53Z" fill="#F2F3F8"/>
<path d="M139.278 27.307C154.982 27.307 168.787 71.6754 176.777 138.798C177.302 139.34 177.811 139.893 178.325 140.447C171.774 57.8137 156.763 0 139.278 0C131.893 0 124.938 10.3387 118.893 28.4959C120.407 33.0325 121.855 38.0566 123.252 43.5301C128.23 33.0544 133.633 27.307 139.278 27.307Z" fill="#F2F3F8"/>
<path d="M180.715 179.956C180.232 168.801 179.614 157.952 178.855 147.477C178.458 147.11 178.062 146.731 177.641 146.37C178.817 157.054 179.844 168.275 180.715 179.956Z" fill="#F2F3F8"/>
<path d="M97.8447 180C97.949 178.57 98.0658 177.156 98.1785 175.732C98.1535 175.376 98.1243 175.025 98.0825 174.669C98.0033 176.439 97.9157 178.219 97.8447 180Z" fill="#F2F3F8"/>
<path d="M98.1699 172.92C98.195 173.506 98.2242 174.092 98.2575 174.673C99.8304 154.812 101.871 136.326 104.311 119.61C103.581 119.588 102.855 119.555 102.125 119.544C100.423 136.183 99.0878 154.083 98.1699 172.92Z" fill="#F2F3F8"/>
<path d="M92.8008 106.636C93.2973 110.854 93.7729 115.161 94.2193 119.555C95.6378 119.517 97.0689 119.5 98.4957 119.5C99.714 119.5 100.92 119.517 102.126 119.544C102.576 115.133 103.043 110.827 103.548 106.603C101.871 106.537 100.19 106.482 98.4957 106.482C96.5891 106.482 94.6866 106.553 92.8008 106.636Z" fill="#F2F3F8"/>
<path d="M134.894 112.439C135.336 116.373 135.753 120.383 136.145 124.465C152.045 128.909 166.205 136.272 177.641 146.375C177.358 143.822 177.074 141.291 176.782 138.804C165.559 127.117 151.207 117.973 134.898 112.439H134.894Z" fill="#F2F3F8"/>
<path d="M0 170.882C4.5518 162.258 10.447 154.665 17.4312 148.128C17.6064 145.811 17.7733 143.521 17.9485 141.236C10.1258 149.964 3.98439 159.974 0 170.877V170.882Z" fill="#F2F3F8"/>
<path d="M106.322 106.757C105.626 110.916 104.95 115.206 104.312 119.611C114.688 120.011 124.672 121.446 134.076 123.901C133.487 119.682 132.874 115.573 132.248 111.579C124.021 109.02 115.338 107.365 106.327 106.757H106.322Z" fill="#F2F3F8"/>
<path d="M64.7515 111.578C64.1132 115.573 63.4998 119.682 62.9199 123.9C72.1195 121.495 81.899 120.065 92.0331 119.643C91.3906 115.233 90.7189 110.943 90.0263 106.79C81.2398 107.442 72.7745 109.08 64.7515 111.584V111.578Z" fill="#F2F3F8"/>
<path d="M196.988 170.872C192.887 159.64 186.491 149.361 178.33 140.447C178.514 142.781 178.689 145.121 178.856 147.476C186.153 154.166 192.294 161.974 196.988 170.872Z" fill="#F2F3F8"/>
<path d="M19.4719 139.57C19.1799 142.025 18.9045 144.512 18.625 147.027C30.186 136.595 44.6132 129.001 60.8512 124.459C61.2475 120.378 61.6564 116.367 62.0945 112.433C45.4268 118.087 30.7993 127.517 19.4719 139.57Z" fill="#F2F3F8"/>
<path d="M176.777 138.798C177.069 141.286 177.353 143.822 177.637 146.37C178.058 146.726 178.455 147.11 178.851 147.477C178.684 145.121 178.509 142.781 178.325 140.447C177.808 139.894 177.303 139.341 176.777 138.798Z" fill="#F2F3F8"/>
<path d="M103.549 106.603C103.04 110.827 102.577 115.134 102.126 119.544C102.856 119.555 103.582 119.588 104.312 119.61C104.955 115.205 105.626 110.915 106.323 106.756C105.397 106.696 104.479 106.641 103.549 106.603Z" fill="#F2F3F8"/>
<path d="M57.0537 179.999C58.5599 159.82 60.5374 140.989 62.9197 123.906C62.2272 124.087 61.5346 124.279 60.8462 124.465C59.1773 141.8 57.8881 160.423 57.0537 179.999Z" fill="#F2F3F8"/>
<path d="M139.937 179.956C139.094 160.39 137.809 141.789 136.145 124.459C135.452 124.273 134.768 124.076 134.075 123.901C136.453 140.967 138.431 159.788 139.937 179.956Z" fill="#F2F3F8"/>
<path d="M118.893 54.2138C123.987 68.5576 128.514 88.101 132.248 111.578C133.14 111.858 134.025 112.132 134.897 112.433C131.91 85.367 127.934 61.9062 123.257 43.5244C121.763 46.6748 120.303 50.2361 118.897 54.2083L118.893 54.2138Z" fill="#F2F3F8"/>
<path d="M73.509 44.4343C68.9363 62.6846 65.0437 85.8112 62.0898 112.439C62.9702 112.137 63.8588 111.864 64.7517 111.584C68.3981 88.6109 72.8122 69.4073 77.7771 55.1621C76.3961 51.1898 74.9734 47.6066 73.509 44.4343Z" fill="#F2F3F8"/>
<path d="M98.4913 27.307C104.145 27.307 109.543 33.0544 114.525 43.5301C115.918 38.0512 117.379 33.0325 118.893 28.4959C112.835 10.3387 105.88 0 98.4913 0C91.1024 0 83.9055 10.7003 77.7725 29.4712C79.2577 34.0077 80.6763 39.0045 82.0447 44.4286C87.1389 33.3776 92.6878 27.307 98.4913 27.307Z" fill="#F2F3F8"/>
<path d="M119.06 54.609C120.466 50.6367 121.926 47.0754 123.42 43.9251C122.022 38.4461 120.574 33.4274 119.06 28.8909C117.545 33.4274 116.085 38.4516 114.691 43.9251C116.189 47.0754 117.641 50.6367 119.06 54.609Z" fill="#F2F3F8"/>
<path d="M132.248 111.578C132.874 115.573 133.487 119.682 134.076 123.9C134.768 124.081 135.453 124.273 136.145 124.459C135.753 120.378 135.336 116.367 134.893 112.433C134.021 112.132 133.137 111.858 132.244 111.578H132.248Z" fill="#F2F3F8"/>
<path d="M62.089 112.438C61.6509 116.372 61.2421 120.383 60.8457 124.465C61.5341 124.278 62.2267 124.081 62.9193 123.906C63.4992 119.687 64.1125 115.578 64.7508 111.584C63.858 111.863 62.9693 112.137 62.089 112.438Z" fill="#F2F3F8"/>
<path d="M94.2194 119.556C93.4893 119.578 92.7717 119.611 92.0332 119.644C94.4656 136.343 96.5099 154.824 98.0828 174.668C98.1203 174.082 98.1412 173.507 98.1704 172.921C97.2484 154.095 95.9175 136.201 94.2152 119.556H94.2194Z" fill="#F2F3F8"/>
<path d="M15.6201 180C16.4754 168.549 17.4767 157.542 18.6199 147.033C18.2235 147.4 17.8313 147.762 17.4308 148.129C16.6965 158.418 16.0832 169.059 15.6201 180Z" fill="#F2F3F8"/>
<path d="M98.4916 179.956C98.4165 178.186 98.3289 176.428 98.258 174.674C98.2288 175.025 98.1954 175.376 98.1787 175.732C98.2788 177.129 98.3873 178.537 98.4958 179.956H98.4916Z" fill="#F2F3F8"/>
<path d="M77.7766 55.1566C82.3952 68.3992 86.5381 85.9317 90.026 106.79C90.9439 106.724 91.8618 106.686 92.7963 106.637C89.9384 82.4526 86.2878 61.3478 82.0406 44.4343C80.5803 47.6121 79.1576 51.1898 77.7725 55.1621L77.7766 55.1566Z" fill="#F2F3F8"/>
<path d="M57.0546 27.307C62.8706 27.307 68.4195 33.3776 73.5096 44.4286C74.8822 38.999 76.3007 34.0022 77.7735 29.4712C71.653 10.7003 64.5812 0 57.0546 0C39.5192 0 24.4703 58.1807 17.9492 141.236C18.4582 140.677 18.9505 140.113 19.472 139.57C27.4367 72.026 41.2965 27.307 57.0546 27.307Z" fill="#F2F3F8"/>
<path d="M98.083 174.668C98.1206 175.024 98.1539 175.375 98.179 175.731C98.1957 175.375 98.229 175.024 98.2582 174.674C98.229 174.087 98.1957 173.501 98.1706 172.92C98.1414 173.507 98.1206 174.082 98.083 174.668Z" fill="#F2F3F8"/>
<path d="M17.949 141.236C17.7738 143.521 17.6069 145.811 17.4316 148.128C17.8322 147.761 18.2243 147.4 18.6207 147.032C18.9002 144.512 19.1756 142.025 19.4676 139.576C18.9461 140.118 18.4538 140.682 17.9448 141.241L17.949 141.236Z" fill="#F2F3F8"/>
<path d="M92.5281 106.672C91.5936 106.721 90.6757 106.76 89.7578 106.825C90.4504 110.978 91.1221 115.268 91.7646 119.679C92.4989 119.646 93.2207 119.613 93.9508 119.591C93.5044 115.197 93.0288 110.891 92.5323 106.672H92.5281Z" fill="#F2F3F8"/>
<path d="M77.7769 55.1562C79.162 51.1894 80.5847 47.6062 82.045 44.4284C80.6765 38.9988 79.258 34.002 77.7727 29.4709C76.2999 34.002 74.8772 39.0043 73.5088 44.4284C74.9732 47.5952 76.3959 51.1785 77.7769 55.1562Z" fill="#F2F3F8"/>
</svg>
